<svg class="icon" style="width: 1.001953125em; height: 1em;vertical-align: middle;fill: white;overflow: hidden;" viewBox="0 0 1026 1024" version="1.1" xmlns="http://www.w3.org/2000/svg" p-id="1747"><path d="M1025.024 640l0 128-128 0 0 192.512-128 0 0-192.512-513.024 0q-26.624 0-45.056-18.432t-18.432-45.056l0-448.512-192.512 0 0-128 192.512 0 0-128 128 0 0 128 512 0q26.624 0 45.568 18.432t18.944 45.056l0 448.512 128 0zM769.024 256l-448.512 0 0 384 448.512 0 0-384zM704.512 576.512l-319.488 0 0-257.024 319.488 0 0 257.024z" p-id="1748"></path></svg>