<?xml version="1.0" encoding="iso-8859-1"?>
<!-- Generator: Adobe Illustrator 19.0.0, SVG Export Plug-In . SVG Version: 6.00 Build 0)  -->
<svg xmlns="http://www.w3.org/2000/svg" xmlns:xlink="http://www.w3.org/1999/xlink" version="1.1" id="Layer_1" x="0px" y="0px" viewBox="0 0 512.001 512.001" style="enable-background:new 0 0 512.001 512.001;color:#fff;" xml:space="preserve">
<g>
	<g fill="#fff">
		<path d="M505.028,59.464L452.545,6.981c-9.102-9.106-23.425-9.28-32.042-0.663l-34.668,34.667    c-8.638-4.857-19.63-3.84-26.796,3.323c-3.098,3.1-8.628,7.695-9.011,17.261c-9.504,0.374-14.102,5.854-17.273,9.025    c-7.112,7.113-8.163,18.088-3.307,26.78C28.012,398.81,47.425,378.682,46.394,381.357L0.517,501.815    c-2.298,6.032,3.64,11.983,9.678,9.678c129.647-49.376,121.469-45.962,123.095-47.582l49.223-49.223    c2.929-2.93,2.929-7.678,0-10.607c-2.93-2.928-7.678-2.928-10.608,0l-43.918,43.92l-26.685-26.684l219.916-219.919    c2.929-2.93,2.929-7.678,0-10.607c-2.931-2.929-7.679-2.927-10.607,0L90.694,410.71l-26.685-26.685l275.399-275.399l26.746,26.745    l-38.102,38.982c-2.896,2.962-2.841,7.71,0.121,10.605c2.963,2.898,7.711,2.84,10.605-0.121l37.982-38.86l6.212,6.211    l20.412,20.413l-213.98,213.981c-2.929,2.93-2.929,7.678,0,10.607c2.931,2.928,7.679,2.928,10.608,0l214.612-214.612    c3.487,1.961,7.379,2.99,11.38,2.99c9.982,0,14.921-5.819,18.169-9.067c3.981-3.982,6.043-9.178,6.256-14.505    c5.526-0.218,10.657-2.409,14.52-6.272c3.032-3.034,9.382-8.29,9.056-18.87c-0.116-3.77-1.152-7.414-2.982-10.675l34.67-34.671    C514.341,82.853,514.044,68.481,505.028,59.464z M20.489,491.522l12.863-33.773l20.909,20.911L20.489,491.522z M114.492,455.721    l-44.869,17.088l-30.421-30.424l17.087-44.865C58.748,399.98,112.039,453.268,114.492,455.721z M433.565,165.89l-2.756,2.756    c-2.818,2.82-7.691,2.475-10.829-0.663l-25.432-25.431c-0.213-0.213-49.661-49.665-49.876-49.874    c-4.359-4.359-3.814-8.975-1.31-11.478c2.82-2.82,4.103-4.676,7.564-4.676c4.838,0-0.251-3.691,81.978,78.535    C436.071,158.229,436.368,163.087,433.565,165.89z M454.34,145.116c-2.827,2.827-7.698,2.471-10.829-0.661l-75.957-75.954    c-3.168-3.169-3.465-8.028-0.66-10.832c2.708-2.71,4.069-4.674,7.561-4.674c2.188,0,4.383,0.94,6.023,2.582    c82.247,82.248,78.388,77.078,78.533,81.737C459.123,140.967,457.061,142.394,454.34,145.116z M495.083,80.9l-34.033,34.035    l-63.977-63.977c37.33-37.327,34.993-35.953,38.842-35.953c4.76,0,2.152-1.288,58.505,55.066    C497.589,73.238,497.886,78.096,495.083,80.9z"/>
	</g>
</g>
<g>
</g>
<g>
</g>
<g>
</g>
<g>
</g>
<g>
</g>
<g>
</g>
<g>
</g>
<g>
</g>
<g>
</g>
<g>
</g>
<g>
</g>
<g>
</g>
<g>
</g>
<g>
</g>
<g>
</g>
</svg>
